<svg xmlns="http://www.w3.org/2000/svg" viewBox="0 0 60 36" role="img" aria-label="Union Jack">
  <rect width="60" height="36" fill="#012169"/>
  <path d="M0 0l6 0 21 12 0 3-5 0L0 3zM60 0l-6 0-21 12 0 3 5 0 22-12zM0 36l6 0 21-12 0-3-5 0L0 33zM60 36l-6 0-21-12 0-3 5 0 22 12z" fill="#fff"/>
  <path d="M0 0l3 0 24 14 0 2-3 0L0 2zM60 0l-3 0-24 14 0 2 3 0 24-14zM0 36l3 0 24-14 0-2-3 0L0 34zM60 36l-3 0-24-14 0-2 3 0 24 14z" fill="#c8102e"/>
  <path d="M24 0h12v36H24zM0 12h60v12H0z" fill="#fff"/>
  <path d="M26 0h8v36h-8zM0 14h60v8H0z" fill="#c8102e"/>
</svg>
